<?xml version="1.0" encoding="UTF-8" standalone="no"?>
<svg
   xmlns:dc="http://purl.org/dc/elements/1.1/"
   xmlns:cc="http://creativecommons.org/ns#"
   xmlns:rdf="http://www.w3.org/1999/02/22-rdf-syntax-ns#"
   xmlns:svg="http://www.w3.org/2000/svg"
   xmlns="http://www.w3.org/2000/svg"
   xmlns:sodipodi="http://sodipodi.sourceforge.net/DTD/sodipodi-0.dtd"
   xmlns:inkscape="http://www.inkscape.org/namespaces/inkscape"
   version="1.1"
   width="210"
   height="100"
   viewBox="0 0 210 100"
   id="svg34"
   sodipodi:docname="normal-distribution.svg"
   inkscape:version="1.0.1 (3bc2e813f5, 2020-09-07)">
  <metadata
     id="metadata40">
    <rdf:RDF>
      <cc:Work
         rdf:about="">
        <dc:format>image/svg+xml</dc:format>
        <dc:type
           rdf:resource="http://purl.org/dc/dcmitype/StillImage" />
        <dc:title>Gaussian distribution</dc:title>
      </cc:Work>
    </rdf:RDF>
  </metadata>
  <defs
     id="defs38" />
  <sodipodi:namedview
     pagecolor="#ffffff"
     bordercolor="#666666"
     borderopacity="1"
     objecttolerance="10"
     gridtolerance="10"
     guidetolerance="10"
     inkscape:pageopacity="0"
     inkscape:pageshadow="2"
     inkscape:window-width="1920"
     inkscape:window-height="1057"
     id="namedview36"
     showgrid="false"
     inkscape:zoom="5.2761905"
     inkscape:cx="105"
     inkscape:cy="50"
     inkscape:window-x="-8"
     inkscape:window-y="835"
     inkscape:window-maximized="1"
     inkscape:current-layer="svg34" />
  <title
     id="title2">Gaussian distribution</title>
  <path
     fill="none"
     stroke="#0071BC"
     stroke-width="0.75"
     stroke-linecap="round"
     stroke-linejoin="round"
     stroke-miterlimit="10"
     d="m 1.2873863,79.423509 c 4.511,-0.019 9.0209997,-0.058 13.5299997,-0.175 4.312,-0.113 8.639,-0.297 12.923,-0.836 4.536,-0.572 8.991,-1.522 13.261,-3.25 4.255,-1.723 8.016,-4.334 11.491,-7.389 3.378,-2.968 6.334,-6.613 8.934,-10.324 2.676,-3.817 5.156,-7.777 7.458,-11.854 2.372,-4.2 4.644,-8.458 6.896,-12.729 2.208,-4.187 4.419,-8.368 6.715,-12.502 2.244,-4.042 4.669,-8.055 7.508,-11.674 1.471,-1.875 3.092,-3.546 4.906,-5.054 1.765,-1.467 3.896,-2.293 6.126004,-2.468 2.262,-0.17699997 4.408,0.98 6.232,2.234 1.866,1.283 3.42,3.086 4.861,4.844 2.973,3.619 5.365,7.744 7.704,11.822 2.267,3.953 4.362,8.014 6.489,12.049 2.24,4.25 4.479,8.502 6.841,12.682 2.29,4.056 4.69,8.058 7.354,11.858 2.731,3.898 5.724,7.564 9.159,10.809 3.378,3.188 7.235,5.673 11.417,7.527 4.024,1.785 8.44,2.759 12.768,3.305 4.449,0.563 8.912,0.803 13.39,0.938 4.426,0.135 8.856,0.164 13.284,0.185 0.227,0 0.449,0.002 0.674,0.003"
     id="path18"
     style="fill:#dae8fc;fill-opacity:1;stroke:#6c8ebf;stroke-opacity:1" />
</svg>
